<?xml version="1.0" standalone="no"?>
<!DOCTYPE svg PUBLIC "-//W3C//DTD SVG 20010904//EN"
 "http://www.w3.org/TR/2001/REC-SVG-20010904/DTD/svg10.dtd">
<svg version="1.0" xmlns="http://www.w3.org/2000/svg"
 width="100.000000pt" height="40.000000pt" viewBox="0 0 100.000000 40.000000"
 preserveAspectRatio="xMidYMid meet">
<metadata>
Created by potrace 1.10, written by Peter Selinger 2001-2011
</metadata>
<g transform="translate(0.000000,40.000000) scale(0.100000,-0.100000)"
fill="#000000" stroke="none">
<path d="M552 223 c3 -46 4 -48 36 -51 18 -2 32 1 32 7 0 6 -11 11 -25 11 -22
0 -25 4 -25 40 0 22 -5 40 -11 40 -6 0 -9 -19 -7 -47z"/>
<path d="M654 257 c-3 -8 -4 -30 -2 -49 3 -30 6 -33 37 -33 43 0 59 23 45 62
-7 22 -17 29 -42 31 -21 2 -34 -2 -38 -11z m61 -37 c0 -18 -6 -26 -22 -28 -20
-3 -23 1 -23 28 0 27 3 31 23 28 16 -2 22 -10 22 -28z"/>
<path d="M764 256 c-3 -8 -4 -29 -2 -48 3 -30 6 -33 41 -36 35 -3 37 -2 37 27
0 24 -4 31 -20 31 -11 0 -20 -4 -20 -10 0 -5 7 -10 15 -10 8 0 15 -4 15 -10 0
-5 -11 -10 -25 -10 -21 0 -25 5 -25 30 0 27 3 30 30 30 17 0 30 5 30 10 0 16
-70 12 -76 -4z"/>
<path d="M874 256 c-3 -8 -4 -29 -2 -48 3 -30 7 -33 37 -36 20 -2 37 2 42 10
13 19 11 62 -3 76 -17 17 -67 15 -74 -2z m61 -36 c0 -18 -6 -26 -22 -28 -20
-3 -23 1 -23 28 0 27 3 31 23 28 16 -2 22 -10 22 -28z"/>
</g>
</svg>
