<?xml version="1.0" standalone="no"?>
<!DOCTYPE svg PUBLIC "-//W3C//DTD SVG 20010904//EN"
 "http://www.w3.org/TR/2001/REC-SVG-20010904/DTD/svg10.dtd">
<svg version="1.0" xmlns="http://www.w3.org/2000/svg"
 width="100.000000pt" height="53.000000pt" viewBox="0 0 100.000000 53.000000"
 preserveAspectRatio="xMidYMid meet">
<metadata>
Created by potrace 1.10, written by Peter Selinger 2001-2011
</metadata>
<g transform="translate(0.000000,53.000000) scale(0.100000,-0.100000)"
fill="#000000" stroke="none">
<path d="M39 276 c0 0 -2 -25 -2 -53 l-2 -53 31 0 c35 0 60 22 47 42 -4 7 -8
22 -8 33 0 14 -9 21 -32 26 -18 3 -33 6 -34 5z"/>
<path d="M246 248 c-23 -55 -28 -78 -18 -78 6 0 12 7 16 15 7 20 33 19 45 -2
5 -10 13 -15 16 -11 9 9 -24 108 -36 108 -6 0 -16 -15 -23 -32z"/>
<path d="M330 225 c0 -30 5 -55 10 -55 6 0 10 17 10 38 l0 37 22 -37 c30 -52
43 -48 43 12 0 28 -4 50 -10 49 -5 0 -9 -13 -7 -30 3 -38 -2 -37 -28 6 -12 19
-26 35 -31 35 -5 0 -9 -25 -9 -55z"/>
<path d="M458 272 c-14 -3 -18 -14 -18 -53 0 -48 1 -49 29 -49 35 0 61 23 61
54 0 34 -35 57 -72 48z m36 -25 c24 -17 13 -57 -15 -57 -15 0 -19 7 -19 35 0
38 6 42 34 22z"/>
<path d="M580 226 l0 -56 35 0 c38 0 48 17 13 22 -18 2 -22 10 -22 42 -1 22
-7 41 -13 43 -10 3 -13 -11 -13 -51z"/>
<path d="M676 267 c-21 -16 -24 -60 -6 -82 15 -18 51 -20 68 -3 17 17 15 64
-4 82 -19 19 -35 20 -58 3z m52 -46 c-4 -35 -41 -37 -46 -2 -4 26 13 42 35 34
8 -3 13 -16 11 -32z"/>
<path d="M786 264 c-19 -19 -21 -67 -3 -82 7 -6 27 -10 45 -10 28 1 32 4 32
30 0 23 -4 28 -25 28 -14 0 -25 -4 -25 -10 0 -5 8 -10 17 -10 13 0 14 -3 6
-11 -18 -18 -43 -3 -43 25 0 25 20 39 45 30 8 -4 15 -2 15 4 0 10 -23 22 -40
22 -5 0 -16 -7 -24 -16z"/>
<path d="M890 260 c-11 -11 -20 -26 -20 -33 0 -25 31 -57 55 -57 45 0 61 68
23 94 -29 20 -34 20 -58 -4z m50 -15 c16 -19 3 -55 -20 -55 -21 0 -31 30 -18
54 11 20 22 20 38 1z"/>
<path d="M135 220 c0 -33 4 -50 13 -50 6 0 12 9 12 20 0 11 4 20 9 20 5 0 13
-9 16 -20 11 -36 22 -21 21 28 -1 46 -2 47 -36 50 l-35 3 0 -51z"/>
</g>
</svg>
